<svg width="64" height="64" viewBox="0 0 64 64" fill="none" xmlns="http://www.w3.org/2000/svg">
  <!-- Background circle representing community/collective -->
  <circle cx="32" cy="32" r="30" fill="url(#gradient1)" stroke="url(#gradient2)" stroke-width="3"/>
  
  <!-- Central shield representing protection/privacy -->
  <path d="M32 12L44 20V32C44 40 38 46 32 50C26 46 20 40 20 32V20L32 12Z" fill="url(#gradient3)"/>
  
  <!-- People icons representing community/collective ownership -->
  <circle cx="24" cy="28" r="3" fill="white"/>
  <circle cx="40" cy="28" r="3" fill="white"/>
  <circle cx="32" cy="36" r="3" fill="white"/>
  
  <!-- Connecting lines representing community bonds -->
  <path d="M27 29L29 35" stroke="white" stroke-width="2" stroke-linecap="round"/>
  <path d="M37 29L35 35" stroke="white" stroke-width="2" stroke-linecap="round"/>
  
  <!-- Digital/tech elements -->
  <rect x="28" y="40" width="8" height="4" rx="2" fill="white" opacity="0.8"/>
  <rect x="30" y="44" width="4" height="2" rx="1" fill="white" opacity="0.6"/>
  
  <!-- Gradients -->
  <defs>
    <linearGradient id="gradient1" x1="0%" y1="0%" x2="100%" y2="100%">
      <stop offset="0%" style="stop-color:#3B82F6;stop-opacity:1" />
      <stop offset="100%" style="stop-color:#1E40AF;stop-opacity:1" />
    </linearGradient>
    <linearGradient id="gradient2" x1="0%" y1="0%" x2="100%" y2="100%">
      <stop offset="0%" style="stop-color:#60A5FA;stop-opacity:1" />
      <stop offset="100%" style="stop-color:#3B82F6;stop-opacity:1" />
    </linearGradient>
    <linearGradient id="gradient3" x1="0%" y1="0%" x2="100%" y2="100%">
      <stop offset="0%" style="stop-color:#FFFFFF;stop-opacity:0.9" />
      <stop offset="100%" style="stop-color:#F3F4F6;stop-opacity:0.9" />
    </linearGradient>
  </defs>
</svg> 