<svg width="32" height="32" viewBox="0 0 32 32" fill="none" xmlns="http://www.w3.org/2000/svg">
  <!-- Background circle representing community/collective -->
  <circle cx="16" cy="16" r="15" fill="url(#gradient1)" stroke="url(#gradient2)" stroke-width="2"/>
  
  <!-- Central shield representing protection/privacy -->
  <path d="M16 6L22 10V16C22 20 19 23 16 25C13 23 10 20 10 16V10L16 6Z" fill="url(#gradient3)"/>
  
  <!-- People icons representing community/collective ownership -->
  <circle cx="12" cy="14" r="1.5" fill="white"/>
  <circle cx="20" cy="14" r="1.5" fill="white"/>
  <circle cx="16" cy="18" r="1.5" fill="white"/>
  
  <!-- Connecting lines representing community bonds -->
  <path d="M13.5 14.5L14.5 17.5" stroke="white" stroke-width="1" stroke-linecap="round"/>
  <path d="M18.5 14.5L17.5 17.5" stroke="white" stroke-width="1" stroke-linecap="round"/>
  
  <!-- Digital/tech elements -->
  <rect x="14" y="20" width="4" height="2" rx="1" fill="white" opacity="0.8"/>
  <rect x="15" y="22" width="2" height="1" rx="0.5" fill="white" opacity="0.6"/>
  
  <!-- Gradients -->
  <defs>
    <linearGradient id="gradient1" x1="0%" y1="0%" x2="100%" y2="100%">
      <stop offset="0%" style="stop-color:#3B82F6;stop-opacity:1" />
      <stop offset="100%" style="stop-color:#1E40AF;stop-opacity:1" />
    </linearGradient>
    <linearGradient id="gradient2" x1="0%" y1="0%" x2="100%" y2="100%">
      <stop offset="0%" style="stop-color:#60A5FA;stop-opacity:1" />
      <stop offset="100%" style="stop-color:#3B82F6;stop-opacity:1" />
    </linearGradient>
    <linearGradient id="gradient3" x1="0%" y1="0%" x2="100%" y2="100%">
      <stop offset="0%" style="stop-color:#FFFFFF;stop-opacity:0.9" />
      <stop offset="100%" style="stop-color:#F3F4F6;stop-opacity:0.9" />
    </linearGradient>
  </defs>
</svg> 